<svg width="32" height="32" viewBox="0 0 32 32" fill="none" xmlns="http://www.w3.org/2000/svg">
<path fill-rule="evenodd" clip-rule="evenodd" d="M18 0H14L12.8989 4.40456C11.8698 4.67908 10.8952 5.08694 9.99459 5.60852L6.10052 3.27207L3.27209 6.1005L5.60853 9.99457C5.08695 10.8951 4.67908 11.8698 4.40456 12.8989L0 14V18L4.40456 19.1011C4.67908 20.1302 5.08695 21.1049 5.60853 22.0054L3.2721 25.8995L6.10053 28.7279L9.99458 26.3915C10.8951 26.9131 11.8698 27.3209 12.8989 27.5954L14 32H18L19.1011 27.5954C20.1302 27.3209 21.1049 26.9131 22.0054 26.3915L25.8995 28.7279L28.7279 25.8995L26.3915 22.0054C26.9131 21.1048 27.3209 20.1302 27.5954 19.1011L32 18V14L27.5954 12.8989C27.3209 11.8698 26.9131 10.8952 26.3915 9.99459L28.7279 6.10049L25.8995 3.27206L22.0054 5.60852C21.1049 5.08695 20.1302 4.67908 19.1011 4.40456L18 0ZM16 20C18.2091 20 20 18.2091 20 16C20 13.7909 18.2091 12 16 12C13.7909 12 12 13.7909 12 16C12 18.2091 13.7909 20 16 20Z" fill="#363636"/>
</svg>
